<?xml version="1.0" standalone="no"?>
<!DOCTYPE svg PUBLIC "-//W3C//DTD SVG 20010904//EN"
 "http://www.w3.org/TR/2001/REC-SVG-20010904/DTD/svg10.dtd">
<svg version="1.0" xmlns="http://www.w3.org/2000/svg"
 width="256.000000pt" height="256.000000pt" viewBox="0 0 256.000000 256.000000"
 preserveAspectRatio="xMidYMid meet">

<g transform="translate(0.000000,256.000000) scale(0.100000,-0.100000)"
fill="#000000" stroke="none">
<path d="M1480 2500 c-18 -18 -20 -33 -20 -133 0 -125 9 -147 61 -147 44 0 49
16 49 146 0 116 -1 124 -22 138 -30 21 -44 20 -68 -4z"/>
<path d="M818 2229 c-11 -6 -18 -22 -18 -42 0 -27 13 -45 79 -111 81 -81 112
-94 146 -66 34 28 18 62 -68 148 -82 81 -103 92 -139 71z"/>
<path d="M2082 2157 c-85 -85 -100 -119 -67 -147 35 -29 66 -15 147 67 83 85
95 115 60 146 -33 30 -55 19 -140 -66z"/>
<path d="M1450 2039 c-148 -16 -293 -109 -375 -240 -15 -22 -25 -42 -23 -44 8
-7 128 -12 128 -5 0 4 22 29 50 57 94 94 224 137 352 115 279 -48 430 -350
299 -598 l-27 -50 58 -15 57 -16 22 46 c34 72 39 90 49 165 22 154 -36 321
-153 437 -71 71 -193 135 -277 144 -30 3 -64 7 -75 9 -11 2 -49 0 -85 -5z"/>
<path d="M889 1547 c-92 -31 -173 -83 -231 -147 -55 -61 -113 -173 -124 -236
-3 -23 -9 -46 -13 -51 -3 -5 -45 -22 -92 -36 -462 -143 -515 -761 -84 -973
134 -66 120 -65 1083 -62 l867 3 57 28 c105 52 162 143 162 263 1 93 -37 171
-107 225 -51 38 -134 69 -185 69 -30 0 -67 33 -56 51 2 4 -2 40 -10 79 -35
167 -143 284 -301 326 -28 8 -101 14 -166 14 l-116 0 -12 59 c-36 181 -195
347 -382 396 -83 22 -211 19 -290 -8z m304 -117 c140 -54 242 -184 262 -335
10 -83 14 -91 40 -103 16 -8 83 -12 178 -12 138 0 157 -2 202 -24 57 -26 127
-97 150 -153 9 -21 19 -68 22 -105 11 -122 59 -173 179 -188 41 -5 78 -17 100
-32 64 -43 91 -138 60 -211 -17 -43 -78 -95 -118 -102 -18 -3 -427 -5 -909 -3
l-875 3 -75 37 c-272 134 -328 464 -114 667 68 65 140 98 235 110 40 5 79 16
87 24 8 8 19 47 24 87 11 94 45 167 108 233 118 124 289 166 444 107z"/>
<path d="M2232 1558 c-17 -17 -15 -64 4 -83 13 -13 37 -15 137 -13 119 3 122
3 136 29 13 24 13 29 -2 53 -17 26 -19 26 -140 26 -82 0 -127 -4 -135 -12z"/>
</g>
</svg>
